solid Exported from Blender-2.81 (sub 16)
facet normal -1.000000 0.000000 0.000000
outer loop
vertex -18.324699 -107.683228 37.500000
vertex -18.324699 5.067379 -18.000000
vertex -18.324699 -107.683228 -18.000000
endloop
endfacet
facet normal 0.000000 1.000000 0.000000
outer loop
vertex -18.324699 5.067379 37.500000
vertex 94.425926 5.067379 -18.000000
vertex -18.324699 5.067379 -18.000000
endloop
endfacet
facet normal 1.000000 0.000000 0.000000
outer loop
vertex 94.425926 5.067379 37.500000
vertex 94.425926 -107.683228 -18.000000
vertex 94.425926 5.067379 -18.000000
endloop
endfacet
facet normal 0.000000 -1.000000 0.000000
outer loop
vertex 94.425926 -107.683228 37.500000
vertex -18.324699 -107.683228 -18.000000
vertex 94.425926 -107.683228 -18.000000
endloop
endfacet
facet normal 0.000000 0.000000 -1.000000
outer loop
vertex 94.425926 5.067379 -18.000000
vertex -18.324699 -107.683228 -18.000000
vertex -18.324699 5.067379 -18.000000
endloop
endfacet
facet normal 0.000000 0.000000 1.000000
outer loop
vertex -18.324699 5.067379 37.500000
vertex 94.425926 -107.683228 37.500000
vertex 94.425926 5.067379 37.500000
endloop
endfacet
facet normal -1.000000 0.000000 0.000000
outer loop
vertex -18.324699 -107.683228 37.500000
vertex -18.324699 5.067379 37.500000
vertex -18.324699 5.067379 -18.000000
endloop
endfacet
facet normal 0.000000 1.000000 0.000000
outer loop
vertex -18.324699 5.067379 37.500000
vertex 94.425926 5.067379 37.500000
vertex 94.425926 5.067379 -18.000000
endloop
endfacet
facet normal 1.000000 0.000000 0.000000
outer loop
vertex 94.425926 5.067379 37.500000
vertex 94.425926 -107.683228 37.500000
vertex 94.425926 -107.683228 -18.000000
endloop
endfacet
facet normal 0.000000 -1.000000 0.000000
outer loop
vertex 94.425926 -107.683228 37.500000
vertex -18.324699 -107.683228 37.500000
vertex -18.324699 -107.683228 -18.000000
endloop
endfacet
facet normal 0.000000 0.000000 -1.000000
outer loop
vertex 94.425926 5.067379 -18.000000
vertex 94.425926 -107.683228 -18.000000
vertex -18.324699 -107.683228 -18.000000
endloop
endfacet
facet normal 0.000000 0.000000 1.000000
outer loop
vertex -18.324699 5.067379 37.500000
vertex -18.324699 -107.683228 37.500000
vertex 94.425926 -107.683228 37.500000
endloop
endfacet
endsolid Exported from Blender-2.81 (sub 16)
