<?xml version="1.0" encoding="utf-8"?>
<!-- Generator: Adobe Illustrator 15.1.0, SVG Export Plug-In . SVG Version: 6.00 Build 0)  -->
<!DOCTYPE svg PUBLIC "-//W3C//DTD SVG 1.1//EN" "http://www.w3.org/Graphics/SVG/1.1/DTD/svg11.dtd">
<svg version="1.1" id="Layer_1" xmlns="http://www.w3.org/2000/svg" xmlns:xlink="http://www.w3.org/1999/xlink" x="0px" y="0px"
	 width="72.106px" height="70.951px" viewBox="0 0 72.106 70.951" enable-background="new 0 0 72.106 70.951" xml:space="preserve">
<g>
	
		<polygon fill-rule="evenodd" clip-rule="evenodd" fill="none" stroke="#000000" stroke-width="0.1067" stroke-linecap="round" points="
		20.019,9.543 20.113,9.538 20.201,9.522 20.286,9.495 20.367,9.458 20.445,9.414 20.595,9.303 21.21,8.752 25.176,5.921 
		30.365,2.987 30.764,2.836 34.428,0.824 35.831,0.22 36.166,0.109 36.305,0.08 36.444,0.062 36.585,0.053 36.726,0.056 
		36.865,0.068 37.003,0.09 37.272,0.163 37.401,0.213 37.526,0.271 37.646,0.338 37.759,0.413 37.866,0.496 37.966,0.586 
		38.058,0.684 38.071,0.701 38.097,0.744 38.254,1.084 38.271,1.111 38.274,1.114 38.282,1.122 38.293,1.128 38.321,1.142 
		38.455,1.195 38.467,1.201 38.477,1.208 38.48,1.211 38.482,1.214 38.484,1.217 38.486,1.222 38.489,1.233 38.49,1.246 
		38.49,1.259 38.474,1.38 38.474,1.394 38.475,1.406 38.476,1.412 38.478,1.417 38.479,1.422 38.481,1.427 38.484,1.431 
		38.569,1.527 38.654,1.607 39.053,1.9 39.125,1.964 39.211,2.055 39.363,2.252 39.494,2.472 39.716,2.969 40.492,5.132 
		40.656,5.725 40.709,6 40.771,6.764 40.768,7.346 40.717,7.876 40.62,8.358 40.48,8.795 40.299,9.192 40.08,9.551 39.822,9.876 
		39.529,10.17 39.204,10.438 38.847,10.683 38.049,11.115 36.635,11.692 36.565,11.729 36.232,11.956 36.168,11.987 36.136,11.998 
		36.042,12.021 35.478,12.083 27.682,15.105 27.635,15.138 27.358,15.367 27.303,15.401 27.051,15.496 26.419,15.673 26.083,15.799 
		25.942,15.869 25.244,16.354 24.894,16.557 23.391,17.286 23.279,17.358 23.182,17.432 23.104,17.505 23.071,17.542 23.044,17.58 
		23.023,17.617 23.008,17.655 22.997,17.697 22.99,17.748 22.987,17.873 23.019,18.198 23.542,20.323 23.935,21.259 24.426,22.118 
		24.698,22.496 24.981,22.827 25.273,23.102 25.421,23.216 25.569,23.312 25.882,23.466 26.646,23.714 29.981,24.533 31.385,25.088 
		31.546,25.126 31.974,25.182 32.369,25.19 32.74,25.158 42.208,23.161 46.312,22.847 47.526,22.897 48.654,23.03 49.711,23.238 
		50.713,23.516 52.609,24.253 53.535,24.7 53.574,24.722 53.808,24.89 53.855,24.913 53.896,24.927 54.173,24.98 54.229,24.998 
		54.282,25.02 54.286,25.022 54.29,25.026 54.294,25.03 54.298,25.035 54.306,25.047 54.319,25.077 54.356,25.181 54.368,25.209 
		54.375,25.22 54.378,25.225 54.381,25.229 54.385,25.231 55.333,25.708 55.783,25.868 55.883,25.916 55.99,25.98 59.305,28.842 
		61.214,31.088 61.646,31.745 62.606,33.532 62.655,33.599 62.818,33.771 62.82,33.773 62.821,33.773 62.821,33.773 62.821,33.772 
		63.415,35.027 65.034,39.507 65.213,39.883 65.248,39.977 65.276,40.07 65.439,40.922 65.922,47.504 65.916,48.502 65.778,49.366 
		65.778,49.43 65.782,49.487 65.787,49.512 65.792,49.534 65.8,49.553 65.81,49.57 65.852,49.622 65.903,49.669 65.963,49.71 
		66.031,49.746 66.105,49.776 66.274,49.825 66.465,49.856 66.892,49.88 68.526,49.775 68.645,49.778 68.851,49.812 69.163,49.892 
		69.465,50 69.755,50.133 70.034,50.291 70.298,50.472 70.549,50.675 70.783,50.898 71.001,51.141 71.202,51.4 71.384,51.676 
		71.545,51.966 71.687,52.27 71.806,52.584 71.901,52.909 72.014,53.523 72.053,54.512 71.985,55.591 71.653,57.583 71.4,58.462 
		71.082,59.276 70.693,60.037 70.292,60.67 70.29,60.674 70.281,60.681 70.271,60.688 70.242,60.702 70.108,60.755 70.097,60.761 
		70.087,60.768 70.083,60.771 70.081,60.774 70.079,60.777 70.033,60.868 69.914,61.057 69.589,61.448 68.681,62.279 68.658,62.292 
		68.542,62.34 68.501,62.361 68.489,62.37 67.708,63.123 67.392,63.384 67.284,63.458 67.264,63.467 67.243,63.475 67.2,63.485 
		67.075,63.506 67.056,63.511 67.037,63.519 67.018,63.527 67.009,63.533 66.818,63.691 66.232,64.063 61.162,66.247 61.091,66.287 
		60.77,66.503 60.703,66.535 57.093,67.518 56.604,67.562 56.516,67.577 56.435,67.601 56.356,67.637 56.235,67.705 55.997,67.875 
		54.807,68.99 54.559,69.171 54.437,69.242 53.183,69.742 52.113,70.001 33.626,70.898 31.747,70.798 29.922,70.535 26.655,69.701 
		25.671,69.56 24.597,69.534 17.042,69.941 15.468,69.747 14.668,69.569 13.924,69.339 13.28,69.059 13.01,68.9 12.783,68.729 
		12.687,68.639 12.604,68.546 12.535,68.45 12.48,68.351 12.44,68.249 12.43,68.207 12.414,68.101 12.403,67.829 12.434,67.242 
		12.45,67.117 12.512,66.867 12.646,66.493 12.653,66.467 12.655,66.456 12.656,66.447 12.655,66.44 12.654,66.434 12.645,66.417 
		12.633,66.4 12.618,66.384 12.601,66.366 12.557,66.332 12.444,66.262 11.741,65.929 11.394,65.703 11.233,65.576 11.166,65.509 
		11.107,65.438 11.059,65.36 11.038,65.318 11.003,65.228 10.979,65.126 10.967,65.012 10.965,64.884 10.997,64.579 11.063,64.256 
		11.114,64.089 11.251,63.772 12.096,62.414 12.377,62.085 12.871,61.628 12.877,61.62 12.89,61.596 12.946,61.46 12.959,61.435 
		12.966,61.425 12.969,61.422 12.971,61.419 13.176,61.311 14.39,60.438 14.484,60.39 14.575,60.35 15.429,60.137 15.506,60.106 
		15.987,59.849 16.07,59.816 17.284,59.533 17.366,59.503 17.441,59.469 17.507,59.432 17.564,59.39 17.581,59.371 17.625,59.3 
		17.922,58.661 18.262,57.726 18.431,57.047 18.456,56.856 18.459,56.692 18.452,56.621 18.438,56.56 18.418,56.508 18.407,56.492 
		18.39,56.476 18.366,56.458 18.301,56.418 17.26,56.008 14.61,55.273 13.74,54.926 11.694,53.851 11.206,53.532 10.984,53.354 
		10.775,53.153 10.62,52.977 10.608,52.959 10.599,52.94 10.592,52.919 10.582,52.877 10.56,52.747 10.554,52.727 10.547,52.708 
		10.538,52.689 10.526,52.673 10.059,52.224 9.999,52.15 9.614,51.546 9.519,51.428 9.408,51.312 9.275,51.199 9.18,51.131 
		9.097,51.085 8.681,50.904 8.613,50.862 8.59,50.844 8.574,50.828 8.559,50.81 8.532,50.77 8.437,50.59 8.423,50.57 8.408,50.553 
		8.393,50.537 8.075,50.283 7.773,50 7.636,49.841 7.503,49.662 7.054,48.844 6.691,48.01 6.594,47.846 6.481,47.687 6.347,47.529 
		5.531,46.714 5.337,46.465 5.162,46.194 5.009,45.894 4.879,45.56 4.776,45.187 4.741,45.001 4.683,44.28 4.657,44.157 
		4.595,43.963 4.505,43.755 3.819,42.576 3.487,41.761 3.354,41.309 3.257,40.835 3.195,40.331 3.185,39.189 3.276,38.261 
		3.455,37.466 3.472,37.33 3.479,37.067 3.456,36.585 3.458,36.472 3.47,36.361 3.51,36.186 3.684,35.699 4.662,33.542 
		4.843,32.975 4.894,32.706 4.905,32.577 4.907,32.453 4.898,32.335 4.877,32.224 4.862,32.171 4.837,32.107 4.806,32.046 
		4.769,31.988 4.725,31.933 4.676,31.881 4.563,31.785 4.432,31.697 4.127,31.543 2.732,31.013 2.583,30.933 2.478,30.866 
		2.321,30.741 1.968,30.394 1.245,29.544 0.877,29.041 0.679,28.695 0.492,28.302 0.326,27.868 0.191,27.398 0.097,26.901 
		0.053,26.381 0.062,25.946 0.08,25.81 0.422,24.613 0.562,23.729 0.611,23.583 0.787,23.197 1.188,22.461 1.389,22.016 
		1.74,20.982 2.722,16.866 2.727,16.822 2.726,16.701 2.709,16.568 2.538,15.907 2.517,15.769 2.505,15.155 2.531,14.851 
		2.576,14.564 2.716,14.034 2.913,13.55 3.037,13.307 3.171,13.086 3.316,12.89 3.477,12.711 3.657,12.543 4.476,11.97 
		4.525,11.926 4.716,11.707 4.732,11.693 4.748,11.682 5.188,11.493 9.38,10.312 10.384,10.18 11.038,10.188 11.205,10.175 
		11.281,10.162 11.35,10.145 11.41,10.122 11.436,10.108 11.459,10.093 11.48,10.077 11.501,10.055 11.52,10.031 11.537,10.006 
		11.552,9.978 11.577,9.917 11.596,9.849 11.619,9.69 11.659,8.836 11.808,8.043 11.979,7.413 12.34,6.437 12.625,5.837 
		12.777,5.57 12.93,5.342 13.006,5.247 13.081,5.167 13.221,5.042 13.377,4.925 13.728,4.717 14.12,4.543 14.543,4.404 14.983,4.3 
		15.428,4.232 15.866,4.2 16.283,4.206 16.873,4.283 17.439,4.436 17.974,4.658 18.466,4.942 18.905,5.281 19.102,5.468 
		19.282,5.667 19.443,5.876 19.585,6.094 19.706,6.32 19.806,6.554 19.881,6.797 20.006,7.401 20.127,8.599 20.118,8.9 
		20.019,9.543 	"/>
</g>
</svg>
