<?xml version="1.0" encoding="utf-8"?>
<!-- Generator: Adobe Illustrator 15.1.0, SVG Export Plug-In . SVG Version: 6.00 Build 0)  -->
<!DOCTYPE svg PUBLIC "-//W3C//DTD SVG 1.1//EN" "http://www.w3.org/Graphics/SVG/1.1/DTD/svg11.dtd">
<svg version="1.1" id="Layer_1" xmlns="http://www.w3.org/2000/svg" xmlns:xlink="http://www.w3.org/1999/xlink" x="0px" y="0px"
	 width="72.105px" height="70.951px" viewBox="0 0 72.105 70.951" enable-background="new 0 0 72.105 70.951" xml:space="preserve">
<g>
	<polygon fill="none" stroke="#000000" stroke-width="0.1067" stroke-linecap="round" points="20.019,9.543 20.367,9.458 
		35.831,0.22 36.585,0.053 37.272,0.163 38.071,0.701 38.274,1.114 38.477,1.208 38.486,1.222 38.49,1.246 38.475,1.406 
		38.481,1.427 39.494,2.472 40.709,6 40.62,8.358 39.822,9.876 23.071,17.542 22.997,17.697 22.987,17.873 24.426,22.118 
		25.421,23.216 31.546,25.126 47.526,22.897 54.286,25.022 54.381,25.229 55.883,25.916 62.82,33.773 62.821,33.773 62.821,33.772 
		65.248,39.978 65.8,49.554 65.963,49.71 66.465,49.856 68.851,49.812 70.034,50.291 71.001,51.142 71.687,52.271 72.053,54.513 
		71.082,59.276 70.29,60.674 70.083,60.771 68.681,62.278 68.489,62.37 67.264,63.467 55.997,67.875 54.559,69.171 53.183,69.742 
		13.28,69.06 12.604,68.546 12.43,68.207 12.656,66.446 12.654,66.435 12.601,66.366 11.394,65.703 11.059,65.36 10.967,65.013 
		11.114,64.089 12.971,61.419 17.507,59.433 17.581,59.371 18.431,57.047 18.438,56.56 18.407,56.492 18.366,56.458 10.775,53.153 
		10.608,52.959 10.526,52.673 9.097,51.085 8.613,50.862 5.162,46.194 3.257,40.835 3.458,36.472 4.907,32.453 4.837,32.107 
		4.676,31.881 1.968,30.394 0.492,28.302 0.053,26.381 2.726,16.701 2.505,15.155 2.913,13.55 3.477,12.711 4.748,11.682 
		11.41,10.122 11.501,10.055 12.777,5.57 13.221,5.042 14.543,4.404 16.283,4.206 18.466,4.942 19.443,5.876 19.881,6.797 
		20.019,9.543 	"/>
</g>
</svg>
