solid Exported from Blender-2.81 (sub 16)
facet normal -1.000000 0.000000 0.000000
outer loop
vertex -196.099915 443.549438 168.979858
vertex -196.099915 592.891968 -0.691154
vertex -196.099915 443.549438 -0.691154
endloop
endfacet
facet normal 0.000000 1.000000 0.000000
outer loop
vertex -196.099915 592.891968 168.979858
vertex -46.099915 592.891968 -0.691154
vertex -196.099915 592.891968 -0.691154
endloop
endfacet
facet normal 1.000000 0.000000 0.000000
outer loop
vertex -46.099915 592.891968 168.979858
vertex -46.099915 443.549438 -0.691154
vertex -46.099915 592.891968 -0.691154
endloop
endfacet
facet normal 0.000000 -1.000000 0.000000
outer loop
vertex -46.099915 443.549438 168.979858
vertex -196.099915 443.549438 -0.691154
vertex -46.099915 443.549438 -0.691154
endloop
endfacet
facet normal 0.000000 0.000000 -1.000000
outer loop
vertex -46.099915 592.891968 -0.691154
vertex -196.099915 443.549438 -0.691154
vertex -196.099915 592.891968 -0.691154
endloop
endfacet
facet normal 0.000000 0.000000 1.000000
outer loop
vertex -196.099915 592.891968 168.979858
vertex -46.099915 443.549438 168.979858
vertex -46.099915 592.891968 168.979858
endloop
endfacet
facet normal -1.000000 0.000000 0.000000
outer loop
vertex -196.099915 443.549438 168.979858
vertex -196.099915 592.891968 168.979858
vertex -196.099915 592.891968 -0.691154
endloop
endfacet
facet normal 0.000000 1.000000 0.000000
outer loop
vertex -196.099915 592.891968 168.979858
vertex -46.099915 592.891968 168.979858
vertex -46.099915 592.891968 -0.691154
endloop
endfacet
facet normal 1.000000 0.000000 0.000000
outer loop
vertex -46.099915 592.891968 168.979858
vertex -46.099915 443.549438 168.979858
vertex -46.099915 443.549438 -0.691154
endloop
endfacet
facet normal 0.000000 -1.000000 0.000000
outer loop
vertex -46.099915 443.549438 168.979858
vertex -196.099915 443.549438 168.979858
vertex -196.099915 443.549438 -0.691154
endloop
endfacet
facet normal 0.000000 0.000000 -1.000000
outer loop
vertex -46.099915 592.891968 -0.691154
vertex -46.099915 443.549438 -0.691154
vertex -196.099915 443.549438 -0.691154
endloop
endfacet
facet normal 0.000000 0.000000 1.000000
outer loop
vertex -196.099915 592.891968 168.979858
vertex -196.099915 443.549438 168.979858
vertex -46.099915 443.549438 168.979858
endloop
endfacet
endsolid Exported from Blender-2.81 (sub 16)
